<svg xmlns="http://www.w3.org/2000/svg" width="48.855" height="32" viewBox="0 0 48.855 32"><defs><style>.a{fill:#292929;}</style></defs><path class="a" d="M51.72,16.35a3.059,3.059,0,0,1,2.342,1.014,3.056,3.056,0,0,1,1.014,2.342V44.994A3.47,3.47,0,0,1,51.72,48.35H9.577a3.055,3.055,0,0,1-2.342-1.014,3.054,3.054,0,0,1-1.014-2.342V19.706a3.055,3.055,0,0,1,1.014-2.342A3.059,3.059,0,0,1,9.577,16.35H51.72ZM9.577,19q-.391,0-.468.234a.675.675,0,0,0-.234.468v4.683H52.422V19.706a.675.675,0,0,0-.234-.468Q52.109,19,51.719,19H9.577ZM51.72,45.7q.39,0,.468-.234a.675.675,0,0,0,.234-.468V32.35H8.874V44.994a.675.675,0,0,0,.234.468q.077.234.468.234H51.72ZM11.528,43.042V40.311h5.386v2.731Zm8.039,0V40.311h7.961v2.731Z" transform="translate(-6.221 -16.35)"/></svg>