<svg xmlns="http://www.w3.org/2000/svg" width="16" height="16" viewBox="0 0 16 16"><defs><style>.a{fill:#292929;stroke:#292929;stroke-miterlimit:10;stroke-width:3px;}.b{fill:#fff;}.c{stroke:none;}.d{fill:none;}</style></defs><g transform="translate(-676 -842)"><g class="a" transform="translate(676 842)"><rect class="c" width="16" height="16" rx="2"/><rect class="d" x="1.5" y="1.5" width="13" height="13" rx="0.5"/></g><path class="b" d="M10.49,0a1.062,1.062,0,0,0-.746.305L4.517,5.446,1.808,2.823A1.065,1.065,0,0,0,.3,2.845,1.065,1.065,0,0,0,.324,4.353L3.78,7.7a1.067,1.067,0,0,0,1.49,0l5.967-5.87A1.066,1.066,0,0,0,11.249.317,1.057,1.057,0,0,0,10.49,0Z" transform="translate(678 846)"/></g></svg>