<svg xmlns="http://www.w3.org/2000/svg" width="65.6" height="32" viewBox="0 0 65.6 32"><defs><style>.a{fill:#292929;}.b{fill:#fff;}.c{fill:#fffcf2;}</style></defs><rect class="a" width="65.6" height="32" rx="4"/><path class="a" d="M4,0H61.6a4,4,0,0,1,4,4V28a4,4,0,0,1-4,4H4a4,4,0,0,1-4-4V4A4,4,0,0,1,4,0Z"/><rect class="b" width="28.8" height="28.8" rx="3" transform="translate(35.2 2)"/><g transform="translate(8.7 2)"><path class="c" d="M27.285,9l3.384,3.384L19.677,23.4,30.669,34.416,27.285,37.8l-14.4-14.4Z" transform="translate(-12.885 -9)"/></g></svg>