<svg xmlns="http://www.w3.org/2000/svg" width="53.333" height="32" viewBox="0 0 53.333 32"><defs><style>.a{fill:#292929;}</style></defs><path class="a" d="M50.667,4.5h-48A2.667,2.667,0,0,0,0,7.167V33.833A2.667,2.667,0,0,0,2.667,36.5h48a2.667,2.667,0,0,0,2.667-2.667V7.167A2.667,2.667,0,0,0,50.667,4.5ZM4,32.5V27.167A5.333,5.333,0,0,1,9.333,32.5ZM4,13.833V8.5H9.333A5.333,5.333,0,0,1,4,13.833ZM26.667,28.5c-3.682,0-6.667-3.583-6.667-8s2.985-8,6.667-8,6.667,3.582,6.667,8S30.347,28.5,26.667,28.5Zm22.667,4H44a5.333,5.333,0,0,1,5.333-5.333Zm0-18.667A5.333,5.333,0,0,1,44,8.5h5.333Z" transform="translate(0 -4.5)"/></svg>