<svg xmlns="http://www.w3.org/2000/svg" xmlns:xlink="http://www.w3.org/1999/xlink" width="84.462" height="20" viewBox="0 0 84.462 20"><defs><style>.a{fill:#b38624;}.b{fill:#278bb3;}.c{fill:url(#a);}</style><linearGradient id="a" x1="0.5" x2="0.5" y2="1" gradientUnits="objectBoundingBox"><stop offset="0" stop-color="#b38624"/><stop offset="1" stop-color="#278bb3"/></linearGradient></defs><g transform="translate(42.231 10)"><g transform="translate(-42.231 -10)"><path class="a" d="M551.109,56.513V51.861a1.262,1.262,0,1,0-2.5,0v4.652h-2.056V51.7a2.379,2.379,0,0,1,.894-2.057,4.122,4.122,0,0,1,2.511-.624,4.255,4.255,0,0,1,2.511.624,2.281,2.281,0,0,1,.894,2.057l.008,4.809Z" transform="translate(-468.909 -42.06)"/><path class="a" d="M430.93,41.239c-.455.894-1.957.624-2.511,0a2.659,2.659,0,0,1-.455-1.6,2.626,2.626,0,0,1,.455-1.6,1.453,1.453,0,0,1,1.248-.525,1.658,1.658,0,0,1,1.248.524,2.659,2.659,0,0,1,.455,1.6v3.745a2.155,2.155,0,0,1-.709,1.5,3.038,3.038,0,0,1-1.958.454,10.617,10.617,0,0,1-1.248-.085c-.366-.043-.624-.085-.795-.085v1.688s.67.073.894.085c.337.018.795.085,1.347.085a7.518,7.518,0,0,0,1.872-.185,4.946,4.946,0,0,0,1.433-.624,2.19,2.19,0,0,0,.894-1.163,4.381,4.381,0,0,0,.27-1.688V39.693a4.165,4.165,0,0,0-.27-1.6,3.205,3.205,0,0,0-.795-1.163,3.48,3.48,0,0,0-1.248-.709,4.5,4.5,0,0,0-1.6-.27,3.942,3.942,0,0,0-1.5.27,3.464,3.464,0,0,0-1.078.795,4.328,4.328,0,0,0-.709,1.248,4.215,4.215,0,0,0-.27,1.6,3.494,3.494,0,0,0,.979,2.511,4.438,4.438,0,0,0,1.078.709,3.248,3.248,0,0,0,3.035-.27V41.239Z" transform="translate(-357.569 -29.012)"/><path class="a" d="M416.76,39.656v-7.5h2.057v7.5Zm2.062-9.17a.994.994,0,1,1-.994-.994.994.994,0,0,1,.994.994Z" transform="translate(-352.32 -25.301)"/><path class="a" d="M398.284,42.359a5.166,5.166,0,0,0,3.39,1.078c1.872,0,3.22-1.078,3.22-2.511,0-1.163-.795-1.872-2.227-2.142l-1.433-.185c-.709-.085-.979-.27-.979-.709s.455-.709,1.163-.709a5.142,5.142,0,0,1,2.326.709l.979-1.248a5.25,5.25,0,0,0-3.036-.894c-1.872,0-3.121.894-3.121,2.326,0,1.163.795,1.957,2.227,2.142l1.433.185c.624.085.894.369.894.709,0,.454-.525.795-1.433.795a4.7,4.7,0,0,1-2.411-.795Z" transform="translate(-341.702 -28.898)"/><path class="a" d="M349.189,51.365l-1.689-.454a2.319,2.319,0,0,1-1.163,1.248,2.124,2.124,0,0,1-2.582-.454l5.178-2.667-.269-.455A3.986,3.986,0,0,0,343.3,46.8a3.837,3.837,0,0,0-1.6,5.177,3.927,3.927,0,0,0,5.362,1.6A4.324,4.324,0,0,0,349.189,51.365Zm-5.277-2.936a2.278,2.278,0,0,1,2.582.454l-3.489,1.787A2,2,0,0,1,343.913,48.429Z" transform="translate(-292.778 -39.777)"/><path class="b" d="M283.519,30.423c-4.014-1.787-4.1,3.929-1.248,3.929,1.688,0,1.6-1.872,1.6-3.121v-6.07h2.043V32.2a4.165,4.165,0,0,1-.27,1.6,3.206,3.206,0,0,1-.795,1.163,3.482,3.482,0,0,1-1.248.709,4.5,4.5,0,0,1-1.6.27,3.246,3.246,0,0,1-1.5-.369,3.823,3.823,0,0,1-1.164-.894,4.583,4.583,0,0,1-.709-1.248,4.875,4.875,0,0,1-.27-1.6,3.04,3.04,0,0,1,.27-1.348,4.3,4.3,0,0,1,.76-1.113,3.823,3.823,0,0,1,1.027-.759,4.451,4.451,0,0,1,2.95,0A7.513,7.513,0,0,1,283.519,30.423Z" transform="translate(-238.809 -21.587)"/><path class="b" d="M219.38,55.976a3.886,3.886,0,0,1-2.752-1.064,3.157,3.157,0,0,1-.795-1.163,4.329,4.329,0,0,1,0-3.007,4.23,4.23,0,0,1,.795-1.163,3.648,3.648,0,0,1,1.248-.795,4.18,4.18,0,0,1,1.5-.27,3.886,3.886,0,0,1,2.752,1.064,3.158,3.158,0,0,1,.795,1.163,4.352,4.352,0,0,1,.27,1.5,3.941,3.941,0,0,1-.27,1.5,3.467,3.467,0,0,1-.795,1.163,3.885,3.885,0,0,1-2.752,1.064Zm0-1.6a1.554,1.554,0,0,0,1.248-.525,2.129,2.129,0,0,0,.454-1.6,2.631,2.631,0,0,0-.454-1.6,1.582,1.582,0,0,0-1.248-.525,1.535,1.535,0,0,0-1.248.525,2.129,2.129,0,0,0-.455,1.6,2.627,2.627,0,0,0,.455,1.6,1.68,1.68,0,0,0,1.248.525Z" transform="translate(-184.941 -41.622)"/><path class="b" d="M168.787,54.775c-.185,0-.338.014-.594.014H167.3a10.713,10.713,0,0,1-1.872-.185A3.356,3.356,0,0,1,164,53.98a3.748,3.748,0,0,1-.979-1.163,3.356,3.356,0,0,1-.369-1.688,3.634,3.634,0,0,1,.369-1.787A3.51,3.51,0,0,1,164,48.094a4.405,4.405,0,0,1,1.433-.709,5.8,5.8,0,0,1,1.872-.27h1.5l0,1.594c-.185,0-.368.009-.624.009h-.794a3.462,3.462,0,0,0-2.057.525,2.2,2.2,0,0,0-.709,1.787,1.656,1.656,0,0,0,.709,1.5,3.286,3.286,0,0,0,2.057.454h1.4c0,.78.016,1.8.016,1.8" transform="translate(-139.541 -40.42)"/><path class="b" d="M0,53.747V51.874l7.418-2.95v1.5L1.347,52.754,7.418,55.08v1.5C7.39,56.7,0,53.747,0,53.747ZM13.39,56.7v-1.5l6.071-2.326L13.39,50.541v-1.5l7.419,2.95V53.86C20.78,53.747,13.39,56.7,13.39,56.7Z" transform="translate(0 -41.974)"/><path class="c" d="M63.4,0A144.488,144.488,0,0,1,58.41,20,105.8,105.8,0,0,1,63.4,0Z" transform="translate(-50.112 0)"/></g></g></svg>